<?xml version="1.0" encoding="utf-8"?>
<!-- Generator: Adobe Illustrator 16.0.4, SVG Export Plug-In . SVG Version: 6.00 Build 0)  -->
<!DOCTYPE svg PUBLIC "-//W3C//DTD SVG 1.1//EN" "http://www.w3.org/Graphics/SVG/1.1/DTD/svg11.dtd">
<svg version="1.1" id="Calque_1" xmlns="http://www.w3.org/2000/svg" xmlns:xlink="http://www.w3.org/1999/xlink" x="0px" y="0px"
	 width="1049px" height="218px" viewBox="0 0 1049 218" enable-background="new 0 0 1049 218" xml:space="preserve">
<path fill="#FFFFFF" d="M95.723,141.354l-0.169,2.546H59.732V80.236h2.716v61.117H95.723z"/>
<path fill="#FFFFFF" d="M103.109,117.076c0-15.534,6.536-23.598,19.099-23.598c10.695,0,18.505,6.621,18.505,22.834
	c0,0.339,0,0.849-0.085,1.188h-34.888c0.17,18.844,5.772,25.125,18.76,25.125c5.348,0,9.677-1.443,13.921-3.989l0.339,2.207
	c-4.244,2.631-8.743,4.074-14.43,4.074C108.966,144.918,103.109,136.939,103.109,117.076z M138.251,115.718
	c-0.169-14.515-6.875-20.033-16.043-20.033c-11.035,0-16.043,7.045-16.553,20.033H138.251z"/>
<path fill="#FFFFFF" d="M184.671,77.261c0-0.679,0.388-1.164,1.067-1.261h0.194h0.194h4.656c0.776,0,1.261,0.485,1.261,1.261
	c0,0.582-0.485,1.164-1.261,1.164h-3.686v3.686c0,0.679-0.582,1.261-1.164,1.261c-0.776,0-1.261-0.582-1.261-1.261V77.261z
	 M184.671,87.058c0-0.679,0.485-1.261,1.261-1.261c0.582,0,1.164,0.582,1.164,1.261v4.947c0,0.582-0.582,1.261-1.164,1.261
	c-0.776,0-1.261-0.679-1.261-1.261V87.058z M184.671,96.952c0-0.776,0.485-1.261,1.261-1.261c0.582,0,1.164,0.485,1.164,1.261v4.85
	c0,0.679-0.582,1.261-1.164,1.261c-0.776,0-1.261-0.582-1.261-1.261V96.952z M184.671,106.749c0-0.776,0.485-1.261,1.261-1.261
	c0.582,0,1.164,0.485,1.164,1.261v4.947c0,0.582-0.582,1.164-1.164,1.164c-0.776,0-1.261-0.582-1.261-1.164V106.749z
	 M184.671,116.546c0-0.679,0.485-1.164,1.261-1.164c0.582,0,1.164,0.485,1.164,1.164v4.947c0,0.679-0.582,1.261-1.164,1.261
	c-0.776,0-1.261-0.582-1.261-1.261V116.546z M184.671,126.44c0-0.776,0.485-1.261,1.261-1.261c0.582,0,1.164,0.485,1.164,1.261
	v4.947c0,0.582-0.582,1.164-1.164,1.164c-0.776,0-1.261-0.582-1.261-1.164V126.44z M185.933,143.9c-0.679,0-1.261-0.485-1.261-1.261
	c0-0.194,0.097-0.485,0.291-0.679c-0.194-0.291-0.291-0.485-0.291-0.776v-4.947c0-0.679,0.485-1.164,1.261-1.164
	c0.582,0,1.164,0.485,1.164,1.164v4.947c0,0.097,0,0.194-0.097,0.291c0.582,0.097,1.261,0.582,1.261,1.164
	c0,0.776-0.679,1.261-1.261,1.261H185.933z M191.946,143.9c-0.776,0-1.261-0.485-1.261-1.261c0-0.582,0.485-1.164,1.261-1.164h4.947
	c0.582,0,1.164,0.582,1.164,1.164c0,0.776-0.582,1.261-1.164,1.261H191.946z M195.729,78.425c-0.582,0-1.261-0.582-1.261-1.164
	c0-0.776,0.679-1.261,1.261-1.261h5.044c0.582,0.097,1.261,0.582,1.164,1.358c0,0.582-0.582,1.067-1.261,1.067H195.729z
	 M201.646,141.281c1.552-0.097,3.201-0.291,4.656-0.679c0.679-0.194,1.358,0.194,1.455,0.97c0.194,0.582-0.194,1.358-0.776,1.455
	c-1.746,0.388-3.395,0.582-5.044,0.776h-0.194c-0.582,0-1.164-0.388-1.164-1.164C200.386,142.057,200.871,141.475,201.646,141.281z
	 M209.892,80.462c-1.455-0.679-2.91-0.97-4.559-1.358c-0.582-0.194-1.067-0.776-0.97-1.552c0.097-0.582,0.873-1.067,1.455-0.776
	c1.746,0.194,3.298,0.679,4.947,1.358c0.582,0.194,0.97,0.97,0.679,1.552c-0.194,0.485-0.582,0.776-1.164,0.776H209.892z
	 M210.765,139.244c1.455-0.679,2.91-1.358,4.268-2.134c0.679-0.388,1.358-0.194,1.746,0.388c0.291,0.582,0.097,1.358-0.485,1.746
	c-1.455,0.873-3.007,1.552-4.559,2.231c-0.097,0.097-0.291,0.097-0.485,0.097c-0.485,0-0.873-0.291-1.164-0.776
	C209.892,140.214,210.085,139.438,210.765,139.244z M214.16,82.402c-0.582-0.388-0.873-1.067-0.485-1.746
	c0.388-0.582,1.164-0.679,1.746-0.485c1.455,0.873,2.813,1.843,4.171,2.813c0.582,0.388,0.776,1.261,0.291,1.746
	c-0.291,0.388-0.679,0.485-0.97,0.485s-0.582-0.097-0.776-0.194C216.875,83.954,215.518,83.178,214.16,82.402z M218.913,134.394
	c1.164-1.067,2.425-2.037,3.395-3.298c0.485-0.485,1.261-0.485,1.746-0.097c0.485,0.485,0.582,1.261,0.097,1.746
	c-1.067,1.358-2.328,2.425-3.686,3.492c-0.291,0.291-0.485,0.291-0.776,0.291s-0.679-0.097-0.97-0.388
	C218.233,135.558,218.331,134.782,218.913,134.394z M221.726,88.028c-0.485-0.485-0.485-1.164,0-1.649
	c0.485-0.582,1.164-0.388,1.649,0.097c1.261,1.164,2.425,2.425,3.395,3.783c0.291,0.582,0.194,1.358-0.388,1.746
	c-0.097,0.194-0.388,0.194-0.582,0.194c-0.582,0-0.873-0.097-1.164-0.485C223.763,90.55,222.792,89.289,221.726,88.028z
	 M225.218,127.41c0.873-1.358,1.649-2.716,2.425-4.171c0.194-0.582,0.97-0.873,1.552-0.582c0.582,0.291,0.873,1.067,0.582,1.649
	c-0.679,1.552-1.552,3.007-2.425,4.462c-0.291,0.388-0.776,0.485-1.067,0.485s-0.485,0-0.679-0.097
	C225.023,128.768,224.927,127.895,225.218,127.41z M227.061,95.788c-0.194-0.582,0-1.358,0.679-1.552
	c0.582-0.388,1.358-0.194,1.552,0.485c0.776,1.455,1.552,3.007,2.037,4.656c0.194,0.776-0.194,1.358-0.873,1.552h-0.388
	c-0.485,0-0.97-0.194-1.067-0.679C228.418,98.601,227.836,97.146,227.061,95.788z M230.067,120.426
	c-0.582-0.291-0.97-0.97-0.873-1.649c0.485-1.455,0.776-3.007,0.97-4.559c0.097-0.679,0.776-1.164,1.358-1.067
	c0.776,0.097,1.261,0.776,1.164,1.358c-0.291,1.746-0.679,3.395-1.164,5.044c-0.097,0.485-0.582,0.873-1.067,0.873H230.067z
	 M230.067,104.809c-0.097-0.776,0.388-1.358,0.97-1.455c0.776-0.194,1.358,0.291,1.455,1.067c0.291,1.552,0.388,3.298,0.388,5.044
	c0.097,0.582-0.485,1.261-1.067,1.261h-0.194c-0.582,0-1.067-0.485-1.164-1.261C230.456,107.816,230.262,106.264,230.067,104.809z"
	/>
<path fill="#FFFFFF" d="M250.243,77.261c0-0.776,0.485-1.261,1.261-1.261c0.582,0,1.261,0.485,1.261,1.261v5.044
	c0,0.582-0.679,1.261-1.261,1.261c-0.776,0-1.261-0.679-1.261-1.261V77.261z M250.243,87.349c0-0.776,0.485-1.261,1.261-1.261
	c0.582,0,1.261,0.485,1.261,1.261v5.044c0,0.582-0.679,1.164-1.261,1.164c-0.776,0-1.261-0.582-1.261-1.164V87.349z M250.243,97.34
	c0-0.679,0.485-1.261,1.261-1.261c0.582,0,1.261,0.582,1.261,1.261v5.044c0,0.679-0.679,1.261-1.261,1.261
	c-0.776,0-1.261-0.582-1.261-1.261V97.34z M250.243,107.428c0-0.776,0.485-1.261,1.261-1.261c0.582,0,1.261,0.485,1.261,1.261v5.044
	c0,0.582-0.679,1.261-1.261,1.261c-0.776,0-1.261-0.679-1.261-1.261V107.428z M250.243,117.516c0-0.776,0.485-1.261,1.261-1.261
	c0.582,0,1.261,0.485,1.261,1.261v5.044c0,0.582-0.679,1.261-1.261,1.261c-0.776,0-1.261-0.679-1.261-1.261V117.516z
	 M250.243,127.507c0-0.679,0.485-1.164,1.261-1.164c0.582,0,1.261,0.485,1.261,1.164v5.044c0,0.679-0.679,1.261-1.261,1.261
	c-0.776,0-1.261-0.582-1.261-1.261V127.507z M250.243,137.595c0-0.776,0.485-1.261,1.261-1.261c0.582,0,1.261,0.485,1.261,1.261
	v5.044c0,0.679-0.679,1.261-1.261,1.261c-0.776,0-1.261-0.582-1.261-1.261V137.595z"/>
<path fill="#FFFFFF" d="M279.148,77.261c0-0.776,0.582-1.261,1.261-1.261h0.097h0.097h4.947c0.776,0,1.261,0.485,1.261,1.261
	c0,0.582-0.485,1.261-1.261,1.261h-3.88v3.783c0,0.582-0.485,1.261-1.261,1.261c-0.679,0-1.261-0.679-1.261-1.261V77.261z
	 M279.148,87.349c0-0.776,0.582-1.261,1.261-1.261c0.776,0,1.261,0.485,1.261,1.261v5.044c0,0.582-0.485,1.164-1.261,1.164
	c-0.679,0-1.261-0.582-1.261-1.164V87.349z M279.148,97.34c0-0.679,0.582-1.261,1.261-1.261c0.776,0,1.261,0.582,1.261,1.261v5.044
	c0,0.679-0.485,1.261-1.261,1.261c-0.679,0-1.261-0.582-1.261-1.261V97.34z M282.155,114.606c-0.679,0-1.164-0.291-1.261-0.97
	c-0.194,0.097-0.291,0.097-0.485,0.097c-0.679,0-1.261-0.679-1.261-1.261v-5.044c0-0.776,0.582-1.261,1.261-1.261
	c0.776,0,1.261,0.485,1.261,1.261v4.753c0.097,0,0.291-0.097,0.485-0.097h5.044c0.582,0,1.261,0.679,1.261,1.261
	c0,0.776-0.679,1.261-1.261,1.261H282.155z M279.148,117.516c0-0.776,0.582-1.261,1.261-1.261c0.776,0,1.261,0.485,1.261,1.261
	v5.044c0,0.582-0.485,1.261-1.261,1.261c-0.679,0-1.261-0.679-1.261-1.261V117.516z M279.148,127.507
	c0-0.679,0.582-1.164,1.261-1.164c0.776,0,1.261,0.485,1.261,1.164v5.044c0,0.679-0.485,1.261-1.261,1.261
	c-0.679,0-1.261-0.582-1.261-1.261V127.507z M279.148,137.595c0-0.776,0.582-1.261,1.261-1.261c0.776,0,1.261,0.485,1.261,1.261
	v5.044c0,0.679-0.485,1.261-1.261,1.261c-0.679,0-1.261-0.582-1.261-1.261V137.595z M290.594,78.522
	c-0.679,0-1.261-0.679-1.261-1.261c0-0.776,0.582-1.261,1.261-1.261h5.044c0.776,0,1.261,0.485,1.261,1.261
	c0,0.582-0.485,1.261-1.261,1.261H290.594z M292.243,114.606c-0.776,0-1.261-0.485-1.261-1.261c0-0.582,0.485-1.261,1.261-1.261
	h5.044c0.582,0,1.261,0.679,1.261,1.261c0,0.776-0.679,1.261-1.261,1.261H292.243z M305.338,79.104
	c-1.455-0.291-2.91-0.582-4.559-0.582h-0.097c-0.679,0-1.261-0.679-1.261-1.261c0-0.776,0.582-1.261,1.261-1.261h0.097
	c1.746,0,3.492,0.291,5.238,0.776c0.679,0.097,1.067,0.873,0.873,1.455s-0.679,0.873-1.164,0.873H305.338z M302.137,112.084
	c1.649-0.097,3.201-0.485,4.559-1.164c0.582-0.097,1.358,0.194,1.649,0.776c0.194,0.679-0.194,1.358-0.776,1.649
	c-1.649,0.582-3.395,0.97-5.141,1.261h-0.097c-0.679,0-1.261-0.485-1.261-1.261C300.876,112.763,301.555,112.084,302.137,112.084z
	 M309.606,81.044c-0.679-0.388-0.776-1.164-0.388-1.746c0.388-0.679,1.067-0.776,1.746-0.388c1.552,0.873,2.91,2.037,3.977,3.395
	c0.582,0.485,0.582,1.261,0,1.746c-0.194,0.291-0.582,0.388-0.873,0.388c-0.388,0-0.582-0.097-0.873-0.485
	C312.128,82.79,310.964,81.82,309.606,81.044z M310.867,108.786c1.261-0.97,2.328-2.134,3.201-3.201
	c0.388-0.679,1.261-0.776,1.843-0.291c0.582,0.388,0.582,1.164,0.194,1.746c-1.164,1.358-2.425,2.619-3.783,3.783
	c-0.194,0.097-0.485,0.291-0.776,0.291s-0.679-0.291-0.97-0.582C310.091,109.95,310.188,109.174,310.867,108.786z M315.911,87.834
	c-0.388-0.679-0.194-1.358,0.485-1.649c0.582-0.388,1.358-0.097,1.746,0.485c0.776,1.649,1.261,3.298,1.649,5.141
	c0.097,0.679-0.388,1.261-1.067,1.455h-0.194c-0.679,0-1.164-0.388-1.261-1.067C316.978,90.744,316.493,89.192,315.911,87.834z
	 M316.396,101.414c0.582-1.358,0.97-2.91,1.067-4.559c0-0.582,0.679-1.067,1.455-1.067c0.582,0.097,1.067,0.679,1.067,1.358
	c-0.097,1.843-0.582,3.589-1.261,5.238c-0.194,0.485-0.582,0.776-1.067,0.776c-0.291,0-0.388,0-0.582-0.097
	C316.493,102.772,316.105,101.996,316.396,101.414z"/>
<path fill="#FFFFFF" d="M331.721,78.522c-0.776,0-1.261-0.679-1.261-1.261c0-0.776,0.485-1.261,1.261-1.261h5.044
	c0.582,0,1.261,0.485,1.261,1.261c0,0.582-0.679,1.261-1.261,1.261H331.721z M341.81,78.522c-0.776,0-1.261-0.679-1.261-1.261
	c0-0.776,0.485-1.261,1.261-1.261h5.044c0.582,0,1.164,0.485,1.164,1.261c0,0.582-0.582,1.261-1.164,1.261H341.81z M351.606,78.522
	c-0.582-0.097-1.067-0.679-1.067-1.261c0-0.776,0.582-1.261,1.261-1.261h1.067h0.194h3.783c0.679,0,1.261,0.485,1.261,1.261
	c0,0.582-0.582,1.261-1.261,1.261h-2.716v3.783c0,0.776-0.679,1.261-1.261,1.261c-0.776,0-1.261-0.485-1.261-1.261V78.522z
	 M351.606,87.349c0-0.679,0.485-1.261,1.261-1.261c0.582,0,1.261,0.582,1.261,1.261v5.044c0,0.679-0.679,1.164-1.261,1.164
	c-0.776,0-1.261-0.485-1.261-1.164V87.349z M351.606,97.34c0-0.582,0.485-1.261,1.261-1.261c0.582,0,1.261,0.679,1.261,1.261v5.044
	c0,0.776-0.679,1.261-1.261,1.261c-0.776,0-1.261-0.485-1.261-1.261V97.34z M351.606,107.428c0-0.582,0.485-1.261,1.261-1.261
	c0.582,0,1.261,0.679,1.261,1.261v5.044c0,0.776-0.679,1.261-1.261,1.261c-0.776,0-1.261-0.485-1.261-1.261V107.428z
	 M351.606,117.516c0-0.679,0.485-1.261,1.261-1.261c0.582,0,1.261,0.582,1.261,1.261v5.044c0,0.679-0.679,1.261-1.261,1.261
	c-0.776,0-1.261-0.582-1.261-1.261V117.516z M351.606,127.507c0-0.582,0.485-1.164,1.261-1.164c0.582,0,1.261,0.582,1.261,1.164
	v5.044c0,0.776-0.679,1.261-1.261,1.261c-0.776,0-1.261-0.485-1.261-1.261V127.507z M351.606,137.595
	c0-0.582,0.485-1.261,1.261-1.261c0.582,0,1.261,0.679,1.261,1.261v5.044c0,0.776-0.679,1.261-1.261,1.261
	c-0.776,0-1.261-0.485-1.261-1.261V137.595z M361.888,78.522c-0.776,0-1.261-0.679-1.261-1.261c0-0.776,0.485-1.261,1.261-1.261
	h5.044c0.582,0,1.261,0.485,1.261,1.261c0,0.582-0.679,1.261-1.261,1.261H361.888z M371.977,78.522
	c-0.776,0-1.261-0.679-1.261-1.261c0-0.776,0.485-1.261,1.261-1.261h5.044c0.582,0,1.261,0.485,1.261,1.261
	c0,0.582-0.679,1.261-1.261,1.261H371.977z"/>
<path fill="#FFFFFF" d="M394.189,78.134c-0.485-0.679-0.388-1.358,0.291-1.746c0.485-0.388,1.164-0.291,1.649,0.194l0.679,0.97
	c0.485,0.582,0.291,1.358-0.291,1.746c-0.097,0.097-0.485,0.291-0.679,0.291c-0.388,0-0.776-0.291-1.067-0.485L394.189,78.134z
	 M397.778,82.984c-0.388-0.485-0.291-1.358,0.194-1.746c0.679-0.291,1.358-0.194,1.746,0.291l2.91,4.074
	c0.388,0.485,0.291,1.164-0.194,1.552c-0.291,0.291-0.485,0.291-0.776,0.291c-0.388,0-0.679-0.194-0.97-0.485L397.778,82.984z
	 M403.501,90.938c-0.388-0.582-0.194-1.261,0.291-1.649c0.582-0.485,1.358-0.388,1.746,0.194l2.91,3.977
	c0.388,0.582,0.194,1.358-0.291,1.649c-0.194,0.194-0.485,0.291-0.679,0.291c-0.388,0-0.776-0.097-0.97-0.485L403.501,90.938z
	 M409.321,98.795c-0.388-0.485-0.291-1.261,0.388-1.649c0.485-0.388,1.164-0.291,1.649,0.194l2.813,4.074
	c0.388,0.485,0.291,1.261-0.194,1.746c-0.291,0.097-0.485,0.194-0.776,0.194c-0.388,0-0.679-0.194-0.97-0.582L409.321,98.795z
	 M418.051,110.726l-2.813-3.88c-0.582-0.679-0.388-1.358,0.194-1.746c0.485-0.388,1.261-0.291,1.746,0.291l2.037,2.91l2.134-2.91
	c0.485-0.582,1.164-0.679,1.746-0.291c0.582,0.388,0.679,1.067,0.194,1.746l-2.813,3.88v3.783c0,0.776-0.485,1.261-1.261,1.261
	c-0.679,0-1.164-0.485-1.164-1.261V110.726z M418.051,119.456c0-0.582,0.485-1.261,1.164-1.261c0.776,0,1.261,0.679,1.261,1.261
	v4.947c0,0.679-0.485,1.164-1.261,1.164c-0.679,0-1.164-0.485-1.164-1.164V119.456z M418.051,129.253
	c0-0.582,0.485-1.164,1.164-1.164c0.776,0,1.261,0.582,1.261,1.164v4.947c0,0.776-0.485,1.261-1.261,1.261
	c-0.679,0-1.164-0.485-1.164-1.261V129.253z M418.051,139.147c0-0.679,0.485-1.261,1.164-1.261c0.776,0,1.261,0.582,1.261,1.261
	v3.492c0,0.776-0.485,1.261-1.261,1.261c-0.679,0-1.164-0.485-1.164-1.261V139.147z M424.259,101.414l2.813-4.074
	c0.485-0.485,1.261-0.582,1.746-0.194c0.582,0.388,0.776,1.164,0.388,1.649l-3.007,3.977c-0.194,0.388-0.582,0.582-0.97,0.582
	c-0.194,0-0.485-0.097-0.679-0.194C424.065,102.675,423.871,101.899,424.259,101.414z M430.079,93.46l2.91-3.977
	c0.388-0.582,1.067-0.679,1.746-0.194c0.485,0.388,0.582,1.067,0.194,1.649l-2.91,3.977c-0.291,0.388-0.582,0.485-0.97,0.485
	c-0.291,0-0.485-0.097-0.776-0.291C429.788,94.818,429.691,94.042,430.079,93.46z M435.802,85.603l3.007-4.074
	c0.291-0.485,1.067-0.582,1.649-0.291c0.485,0.388,0.679,1.261,0.291,1.746l-3.007,3.977c-0.194,0.291-0.582,0.485-0.97,0.485
	c-0.194,0-0.485,0-0.679-0.291C435.608,86.767,435.414,86.088,435.802,85.603z M441.622,77.552l0.679-0.97
	c0.485-0.485,1.261-0.582,1.746-0.194c0.582,0.388,0.776,1.067,0.291,1.746l-0.679,0.97c-0.194,0.194-0.582,0.485-0.97,0.485
	c-0.194,0-0.582-0.194-0.776-0.291C441.331,78.91,441.234,78.134,441.622,77.552z"/>
<path fill="#FFFFFF" d="M447.732,110.92c0-0.485,0-0.97,0-1.552c0-1.164,0.097-2.328,0.194-3.492c0-0.776,0.582-1.358,1.261-1.261
	c0.776,0.097,1.164,0.679,1.164,1.552c-0.097,0.97-0.194,2.037-0.194,3.201c0,0.485,0,0.97,0.097,1.455
	c0,0.679-0.485,1.164-1.261,1.261C448.314,112.084,447.829,111.502,447.732,110.92z M451.224,121.59
	c-0.194,0.097-0.291,0.097-0.388,0.097c-0.582,0-0.97-0.291-1.358-0.776c-0.388-1.649-0.873-3.201-1.164-4.947
	c-0.097-0.679,0.291-1.261,0.97-1.358c0.776-0.097,1.358,0.388,1.455,0.873c0.291,1.649,0.679,3.104,1.358,4.656
	C452.291,120.814,451.903,121.493,451.224,121.59z M448.702,100.638c0.388-1.552,1.067-3.298,1.552-4.85
	c0.388-0.679,1.067-1.067,1.649-0.776c0.679,0.291,0.97,1.067,0.679,1.649c-0.485,1.552-1.067,3.104-1.358,4.559
	c-0.291,0.582-0.679,0.97-1.261,0.97c-0.097,0-0.097,0-0.194,0C448.993,101.996,448.605,101.317,448.702,100.638z M456.268,128.574
	c0.388,0.485,0.194,1.358-0.194,1.649c-0.194,0.291-0.582,0.291-0.776,0.291c-0.388,0-0.679-0.097-0.873-0.485
	c-1.067-1.455-2.037-2.716-2.813-4.462c-0.291-0.485-0.097-1.164,0.582-1.552c0.679-0.291,1.455-0.097,1.746,0.582
	C454.619,125.955,455.395,127.41,456.268,128.574z M452.582,91.132c0.873-1.552,1.94-2.91,2.91-4.171
	c0.485-0.582,1.164-0.679,1.746-0.291c0.582,0.485,0.582,1.261,0.291,1.746c-1.164,1.164-2.037,2.619-2.813,4.074
	c-0.194,0.291-0.582,0.485-0.97,0.485c-0.291,0-0.485-0.097-0.679-0.194C452.485,92.49,452.291,91.811,452.582,91.132z
	 M462.961,135.364c0.485,0.388,0.679,1.164,0.194,1.649c-0.194,0.388-0.582,0.582-0.873,0.582c-0.388,0-0.582-0.097-0.776-0.194
	c-1.358-1.164-2.813-2.231-3.88-3.492c-0.485-0.388-0.485-1.164,0-1.649c0.388-0.485,1.164-0.485,1.649,0
	C460.633,133.424,461.7,134.491,462.961,135.364z M464.804,80.365c0.388,0.679,0.194,1.358-0.291,1.746
	c-1.358,0.873-2.619,1.843-3.686,2.91c-0.194,0.194-0.679,0.291-0.873,0.291c-0.485,0-0.776-0.097-0.97-0.291
	c-0.485-0.582-0.485-1.455,0-1.746c1.261-1.164,2.716-2.231,4.074-3.201C463.64,79.589,464.513,79.783,464.804,80.365z
	 M470.818,142.251c-1.746-0.485-3.492-1.261-4.85-2.037c-0.679-0.388-1.067-1.067-0.679-1.649c0.291-0.679,1.067-0.97,1.746-0.679
	c1.649,0.873,3.007,1.455,4.559,1.94c0.582,0.291,0.97,0.97,0.776,1.552s-0.679,0.97-1.261,0.97
	C471.012,142.348,470.915,142.348,470.818,142.251z M473.534,149.332c0.097,0.582-0.194,1.261-0.873,1.455
	c-1.261,0.291-2.425,0.679-3.104,0.97c-0.776,0.388-1.164,0.485-1.164,0.485c-0.291,0.097-0.485,0.194-0.679,0.194
	c-0.485,0-0.679-0.097-0.873-0.291c-0.291-0.194-0.485-0.388-0.485-0.582c-0.291-0.582-0.097-1.261,0.582-1.552l4.656-2.037
	c0.582-0.291,1.261-0.097,1.552,0.582c0.097,0,0.097,0,0.097,0.097C473.34,148.75,473.437,149.138,473.534,149.332z M474.116,76.776
	c0.097,0.776-0.194,1.358-0.873,1.552c-1.455,0.388-3.007,0.97-4.365,1.455c-0.194,0.097-0.291,0.097-0.485,0.097
	c-0.679,0-1.164-0.194-1.358-0.582c-0.291-0.679,0-1.358,0.679-1.649c1.746-0.582,3.298-1.261,4.947-1.746
	C473.34,75.806,474.019,76.194,474.116,76.776z M475.765,143.318c-0.679-0.097-1.164-0.679-1.067-1.358
	c0.194-0.776,0.776-1.164,1.552-1.067c1.164,0.194,2.619,0.291,3.88,0.291c0.194,0,0.388-0.097,0.679-0.097
	c0.679,0,1.261,0.679,1.261,1.358c0,0.679-0.485,1.261-1.164,1.261c-0.291,0-0.582,0-0.776,0
	C478.675,143.706,477.22,143.512,475.765,143.318z M483.331,149.429c-0.097,0.582-0.582,0.873-1.164,0.873c-0.097,0-0.097,0-0.291,0
	c-1.261-0.194-2.328-0.291-3.589-0.291c-0.291,0-0.582,0-0.97,0c-0.679,0.097-1.261-0.485-1.261-1.261
	c0-0.194,0.194-0.388,0.291-0.582c-0.388-0.097-0.776-0.291-0.873-0.582c-0.388-0.582,0-1.358,0.582-1.746l4.462-2.037
	c0.582-0.291,1.261,0,1.649,0.582c0.291,0.582,0,1.358-0.582,1.746l-3.298,1.455c1.358,0,2.716,0.097,4.171,0.291
	C483.137,148.071,483.525,148.653,483.331,149.429z M484.107,76.485c-0.097,0.679-0.679,1.164-1.358,1.164h-0.097
	c-0.873-0.097-1.649-0.097-2.522-0.097c-0.679,0-1.358,0-2.231,0c-0.582,0.097-1.261-0.388-1.261-1.067s0.485-1.261,1.164-1.358
	c0.873,0,1.552-0.097,2.328-0.097c0.873,0,1.746,0.097,2.716,0.097C483.525,75.224,484.107,75.806,484.107,76.485z M486.047,143.997
	c-0.097,0-0.291,0.097-0.388,0.097c-0.582,0-0.97-0.291-1.261-0.776c-0.194-0.291-0.097-0.776,0.097-1.067c0,0,0,0,0-0.097
	c-0.097-0.679,0.388-1.358,1.164-1.455c1.455-0.388,2.91-0.679,4.462-1.358c0.485-0.194,1.358,0.097,1.649,0.776
	c0.194,0.582-0.194,1.358-0.873,1.649c0,0,0,0-0.097,0c0,0.097-0.194,0.097-0.291,0.194L486.047,143.997z M492.352,153.697
	c-0.291,0.485-0.776,0.679-1.261,0.679c-0.097,0-0.291-0.097-0.582-0.097c-1.067-0.776-2.231-1.261-3.298-2.037
	c-0.388-0.097-0.582-0.388-0.873-0.485c-0.582-0.291-0.873-0.97-0.485-1.552c0.194-0.582,0.97-0.776,1.552-0.582
	c0.388,0.291,0.679,0.388,0.873,0.582c1.261,0.582,2.328,1.261,3.492,1.746C492.352,152.242,492.546,153.115,492.352,153.697z
	 M493.516,79.395c-0.194,0.388-0.679,0.679-1.164,0.679c-0.291,0-0.388,0-0.485-0.194c-1.552-0.485-3.104-1.067-4.559-1.358
	c-0.679-0.291-0.97-0.97-0.776-1.455c0.097-0.776,0.776-1.164,1.455-1.067c1.649,0.485,3.201,1.164,4.85,1.843
	C493.516,78.037,493.71,78.813,493.516,79.395z M494.971,139.535c-0.485,0-0.776-0.194-0.97-0.485
	c-0.388-0.582-0.097-1.552,0.388-2.037c1.261-0.776,2.716-1.552,3.783-2.522c0.582-0.582,1.261-0.485,1.94,0.097
	c0.388,0.582,0.291,1.358-0.291,1.649c-1.358,1.261-2.716,2.328-4.268,3.201C495.456,139.535,495.165,139.535,494.971,139.535z
	 M501.858,156.607c-0.194,0.582-0.776,1.067-1.358,1.067c0,0-0.097,0-0.194,0c-1.746-0.388-3.298-0.776-5.044-1.358
	c-0.582-0.291-0.97-0.97-0.776-1.552c0.291-0.679,0.97-1.067,1.649-0.776c1.552,0.582,2.91,0.97,4.559,1.261
	C501.373,155.346,501.955,155.831,501.858,156.607z M495.844,82.305c-0.582-0.291-0.679-1.164-0.291-1.746
	c0.291-0.485,1.164-0.776,1.746-0.388c1.358,1.067,2.91,2.134,4.074,3.298c0.582,0.485,0.582,1.358,0,1.746
	c-0.194,0.291-0.485,0.388-0.873,0.388c-0.194,0-0.679-0.097-0.97-0.291C498.463,84.245,497.202,83.275,495.844,82.305z
	 M506.611,128.671c-0.873,1.455-1.843,2.91-3.007,4.171c-0.291,0.194-0.679,0.291-0.873,0.291c-0.291,0-0.679,0-0.873-0.194
	c-0.582-0.485-0.582-1.261,0-1.649c0.97-1.261,1.94-2.619,2.716-3.88c0.485-0.679,1.164-0.776,1.746-0.485
	C506.805,127.41,506.999,128.186,506.611,128.671z M502.925,88.707c-0.388-0.485-0.291-1.358,0.291-1.649
	c0.485-0.485,1.261-0.388,1.649,0.097c1.067,1.455,1.94,2.813,2.813,4.365c0.485,0.582,0.291,1.261-0.388,1.649
	c-0.097,0.097-0.485,0.194-0.679,0.194c-0.388,0-0.776-0.194-0.97-0.679C504.865,91.326,503.895,89.968,502.925,88.707z
	 M511.558,155.346c0.291,0.679-0.097,1.358-0.873,1.552c-1.649,0.485-3.395,0.873-5.141,0.97c0,0,0,0-0.194,0
	c-0.485,0-1.067-0.485-1.067-1.164c-0.097-0.485,0.485-1.261,1.067-1.261c1.455-0.097,3.007-0.388,4.656-0.873
	C510.588,154.279,511.364,154.667,511.558,155.346z M510.297,117.904c0.582,0.194,1.067,0.873,0.873,1.455
	c-0.582,1.746-1.164,3.395-1.94,4.947c-0.194,0.388-0.582,0.679-1.067,0.679c-0.194,0-0.485,0-0.679-0.194
	c-0.679-0.194-0.873-0.873-0.679-1.649c0.776-1.455,1.455-2.91,1.843-4.365C508.842,118.098,509.521,117.71,510.297,117.904z
	 M508.357,95.303c0.679-0.194,1.358,0.194,1.649,0.776c0.582,1.552,1.261,3.298,1.552,5.044c0.291,0.582-0.194,1.261-0.97,1.455
	c-0.097,0-0.097,0.097-0.194,0.097c-0.679,0-1.164-0.485-1.358-1.164c-0.291-1.455-0.776-2.91-1.455-4.559
	C507.387,96.467,507.678,95.788,508.357,95.303z M512.334,106.264c0.097,1.067,0.097,2.037,0.097,3.104
	c0,1.746-0.097,3.395-0.291,5.141c-0.097,0.582-0.582,0.97-1.067,0.97c-0.194,0-0.194,0-0.388,0
	c-0.679-0.097-1.164-0.679-1.067-1.358c0.194-1.552,0.388-3.201,0.388-4.753c0-0.97,0-1.94-0.194-2.813
	c-0.097-0.776,0.582-1.455,1.358-1.552C511.655,105.003,512.334,105.391,512.334,106.264z M519.124,152.145
	c-1.067,1.067-2.425,1.94-3.686,2.619c-0.194,0.097-0.291,0.097-0.485,0.097c-0.485,0-1.067-0.194-1.164-0.582
	c-0.291-0.582-0.194-1.358,0.388-1.649c1.164-0.776,2.328-1.552,3.395-2.328c0.679-0.388,1.455-0.291,1.746,0.097
	C519.803,150.981,519.706,151.757,519.124,152.145z"/>
<path fill="#FFFFFF" d="M533.382,77.261c0-0.776,0.485-1.261,1.262-1.261c0.582,0,1.164,0.485,1.164,1.261v3.201
	c0,0.679-0.582,1.164-1.164,1.164c-0.776,0-1.262-0.485-1.262-1.164V77.261z M533.382,85.312c0-0.582,0.485-1.164,1.262-1.164
	c0.582,0,1.164,0.582,1.164,1.164v4.947c0,0.776-0.582,1.261-1.164,1.261c-0.776,0-1.262-0.485-1.262-1.261V85.312z M533.382,95.206
	c0-0.679,0.485-1.261,1.262-1.261c0.582,0,1.164,0.582,1.164,1.261v4.947c0,0.679-0.582,1.164-1.164,1.164
	c-0.776,0-1.262-0.485-1.262-1.164V95.206z M533.382,105.003c0-0.582,0.485-1.164,1.262-1.164c0.582,0,1.164,0.582,1.164,1.164
	v4.947c0,0.776-0.582,1.261-1.164,1.261c-0.776,0-1.262-0.485-1.262-1.261V105.003z M533.382,116.74v-1.843
	c0-0.679,0.485-1.261,1.262-1.261c0.582,0,1.164,0.582,1.164,1.261v1.843c0,0.97,0,1.94,0.193,2.91
	c0.098,0.776-0.388,1.358-1.164,1.358c0,0,0,0-0.097,0c-0.582,0-1.067-0.388-1.261-1.067
	C533.382,118.971,533.382,117.807,533.382,116.74z M534.644,124.985c-0.194-0.679,0.097-1.358,0.873-1.552
	c0.582-0.194,1.357,0.194,1.455,0.776c0.484,1.455,1.066,3.007,1.843,4.268c0.388,0.679,0.097,1.358-0.485,1.746
	c-0.193,0.194-0.388,0.194-0.679,0.194s-0.776-0.291-0.97-0.679C535.808,128.283,535.128,126.634,534.644,124.985z M539.493,133.909
	c-0.291-0.485-0.291-1.164,0.194-1.649c0.582-0.388,1.357-0.388,1.648,0.194c1.164,1.261,2.231,2.328,3.396,3.298
	c0.582,0.388,0.582,1.261,0.194,1.746c-0.194,0.291-0.582,0.388-0.971,0.388c-0.193,0-0.582,0-0.873-0.291
	C541.821,136.528,540.657,135.267,539.493,133.909z M547.447,140.602c-0.679-0.388-0.873-1.164-0.582-1.746
	c0.388-0.582,1.164-0.776,1.746-0.485c1.358,0.776,2.716,1.358,4.365,1.843c0.582,0.194,0.97,0.97,0.679,1.552
	c-0.097,0.582-0.582,0.873-1.164,0.873c-0.194,0-0.291,0-0.388-0.097C550.454,142.057,548.902,141.475,547.447,140.602z
	 M555.983,142.348c0.194-0.679,0.776-1.164,1.552-1.067c0.97,0.194,1.94,0.194,3.007,0.194c0.485,0,1.164,0,1.649,0
	c0.582,0,1.164,0.485,1.164,1.067c0.193,0.776-0.485,1.358-1.067,1.358s-1.066,0-1.746,0c-1.066,0-2.328,0-3.395-0.097
	C556.469,143.609,555.983,143.027,555.983,142.348z M566.75,140.699c1.553-0.388,3.008-0.873,4.365-1.552
	c0.679-0.291,1.358,0,1.649,0.582c0.388,0.582,0.097,1.358-0.485,1.552c-1.649,0.776-3.201,1.358-4.947,1.746
	c-0.097,0.097-0.097,0.097-0.291,0.097c-0.582,0-1.066-0.291-1.164-0.97C565.78,141.572,566.071,140.796,566.75,140.699z
	 M575.189,136.722c1.261-0.97,2.521-1.94,3.492-3.201c0.484-0.485,1.164-0.485,1.648,0c0.485,0.582,0.68,1.261,0.194,1.746
	c-1.261,1.261-2.522,2.522-3.88,3.492c-0.194,0.097-0.485,0.194-0.68,0.194c-0.388,0-0.872-0.194-0.97-0.485
	C574.511,137.886,574.607,137.11,575.189,136.722z M581.494,129.835c0.873-1.164,1.552-2.619,2.231-4.171
	c0.193-0.582,0.873-0.873,1.552-0.582c0.582,0.291,0.873,0.97,0.582,1.552c-0.582,1.649-1.261,3.104-2.328,4.559
	c-0.194,0.388-0.582,0.679-0.97,0.679c-0.194,0-0.485-0.194-0.582-0.291C581.397,131.193,581.106,130.514,581.494,129.835z
	 M584.89,121.299c0.291-1.552,0.388-3.007,0.388-4.559v-0.194c0-0.679,0.582-1.164,1.261-1.164c0.68,0,1.262,0.485,1.262,1.164
	v0.194c0,1.746-0.194,3.298-0.389,4.85c-0.193,0.679-0.679,1.164-1.261,1.164c-0.097,0-0.097,0-0.291-0.097
	C585.277,122.463,584.792,121.881,584.89,121.299z M585.277,77.261c0-0.776,0.582-1.261,1.261-1.261c0.68,0,1.262,0.485,1.262,1.261
	v4.85c0,0.679-0.582,1.261-1.262,1.261c-0.679,0-1.261-0.582-1.261-1.261V77.261z M585.277,87.058c0-0.679,0.582-1.261,1.261-1.261
	c0.68,0,1.262,0.582,1.262,1.261v4.947c0,0.582-0.582,1.261-1.262,1.261c-0.679,0-1.261-0.679-1.261-1.261V87.058z M585.277,96.952
	c0-0.776,0.582-1.261,1.261-1.261c0.68,0,1.262,0.485,1.262,1.261v4.85c0,0.679-0.582,1.261-1.262,1.261
	c-0.679,0-1.261-0.582-1.261-1.261V96.952z M585.277,106.749c0-0.776,0.582-1.261,1.261-1.261c0.68,0,1.262,0.485,1.262,1.261v4.947
	c0,0.582-0.582,1.164-1.262,1.164c-0.679,0-1.261-0.582-1.261-1.164V106.749z"/>
<path fill="#FFFFFF" d="M607.393,77.261c0-0.776,0.582-1.261,1.261-1.261h0.194h4.947c0.775,0,1.261,0.485,1.261,1.261
	c0,0.582-0.485,1.164-1.261,1.164h-3.978v3.686c0,0.679-0.484,1.261-1.164,1.261c-0.679,0-1.261-0.582-1.261-1.261V77.261z
	 M607.393,87.058c0-0.679,0.582-1.261,1.261-1.261c0.68,0,1.164,0.582,1.164,1.261v4.947c0,0.582-0.484,1.261-1.164,1.261
	c-0.679,0-1.261-0.679-1.261-1.261V87.058z M607.393,96.952c0-0.776,0.582-1.261,1.261-1.261c0.68,0,1.164,0.485,1.164,1.261v4.85
	c0,0.679-0.484,1.261-1.164,1.261c-0.679,0-1.261-0.582-1.261-1.261V96.952z M607.393,106.749c0-0.776,0.582-1.261,1.261-1.261
	c0.68,0,1.164,0.485,1.164,1.261v1.94h3.978c0.775,0,1.261,0.679,1.261,1.261c0,0.776-0.485,1.261-1.261,1.261h-3.978v0.485
	c0,0.582-0.484,1.164-1.164,1.164c-0.679,0-1.261-0.582-1.261-1.164V106.749z M607.393,116.546c0-0.679,0.582-1.164,1.261-1.164
	c0.68,0,1.164,0.485,1.164,1.164v4.947c0,0.679-0.484,1.261-1.164,1.261c-0.679,0-1.261-0.582-1.261-1.261V116.546z M607.393,126.44
	c0-0.776,0.582-1.261,1.261-1.261c0.68,0,1.164,0.485,1.164,1.261v4.947c0,0.582-0.484,1.164-1.164,1.164
	c-0.679,0-1.261-0.582-1.261-1.164V126.44z M608.848,143.9c-0.582,0-1.164-0.485-1.164-1.261c0-0.194,0-0.388,0.097-0.485
	c-0.291-0.291-0.388-0.582-0.388-0.97v-4.947c0-0.679,0.582-1.164,1.261-1.164c0.68,0,1.164,0.485,1.164,1.164v4.947
	c0,0.097-0.097,0.194-0.097,0.291h4.074c0.775,0,1.261,0.582,1.261,1.164c0,0.776-0.485,1.261-1.261,1.261H608.848z M618.742,78.425
	c-0.68,0-1.262-0.582-1.262-1.164c0-0.776,0.582-1.261,1.262-1.261h4.85c0.776,0,1.261,0.485,1.261,1.261
	c0,0.582-0.484,1.164-1.261,1.164H618.742z M618.742,111.211c-0.68,0-1.262-0.485-1.262-1.261c0-0.582,0.582-1.261,1.262-1.261h4.85
	c0.776,0,1.261,0.679,1.261,1.261c0,0.776-0.484,1.261-1.261,1.261H618.742z M618.742,143.9c-0.68,0-1.262-0.485-1.262-1.261
	c0-0.582,0.582-1.164,1.262-1.164h4.85c0.776,0,1.261,0.582,1.261,1.164c0,0.776-0.484,1.261-1.261,1.261H618.742z M628.539,78.425
	c-0.582,0-1.262-0.582-1.262-1.164c0-0.776,0.68-1.261,1.262-1.261h4.946c0.68,0,1.262,0.485,1.262,1.261
	c0,0.582-0.582,1.164-1.262,1.164H628.539z M628.539,111.211c-0.582,0-1.262-0.485-1.262-1.261c0-0.582,0.68-1.261,1.262-1.261
	h4.946c0.68,0,1.262,0.679,1.262,1.261c0,0.776-0.582,1.261-1.262,1.261H628.539z M628.539,143.9c-0.582,0-1.262-0.485-1.262-1.261
	c0-0.582,0.68-1.164,1.262-1.164h4.946c0.68,0,1.262,0.582,1.262,1.164c0,0.776-0.582,1.261-1.262,1.261H628.539z M638.433,78.425
	c-0.679,0-1.261-0.582-1.261-1.164c0-0.776,0.582-1.261,1.261-1.261h4.851c0.775,0,1.261,0.485,1.261,1.261
	c0,0.582-0.485,1.164-1.261,1.164H638.433z M638.433,111.211c-0.679,0-1.261-0.485-1.261-1.261c0-0.582,0.582-1.261,1.261-1.261
	h2.328c0.679,0,1.164,0.679,1.164,1.261c0,0.776-0.485,1.261-1.164,1.261H638.433z M638.433,143.9c-0.679,0-1.261-0.485-1.261-1.261
	c0-0.582,0.582-1.164,1.261-1.164h4.851c0.775,0,1.261,0.582,1.261,1.164c0,0.776-0.485,1.261-1.261,1.261H638.433z"/>
<path fill="#FFFFFF" d="M720.687,98.826c-3.311-1.783-7.47-3.056-11.8-3.056c-12.308,0-17.485,6.791-17.485,22.494
	c0,18.166,5.941,24.447,17.401,24.447c4.498,0,8.912-1.273,12.223-3.989l0.425,2.292c-3.056,2.292-7.895,3.99-12.987,3.99
	c-13.242,0-19.693-7.47-19.693-26.739c0-17.062,6.111-24.701,19.778-24.701c4.669,0,9.082,1.188,12.478,2.886L720.687,98.826z"/>
<path fill="#FFFFFF" d="M750.736,145.003c-14.091,0-20.372-7.13-20.372-25.805c0-18.504,6.451-25.635,20.372-25.635
	c14.091,0,20.033,7.13,20.033,25.635C770.77,137.873,764.827,145.003,750.736,145.003z M750.736,142.796
	c12.479,0,17.401-6.791,17.401-23.598c0-16.722-4.923-23.513-17.401-23.513c-12.647,0-17.74,6.875-17.74,23.513
	C732.996,136.006,738.089,142.796,750.736,142.796z"/>
<path fill="#FFFFFF" d="M787.408,143.9V75.822l2.546-0.254V143.9H787.408z"/>
<path fill="#FFFFFF" d="M812.28,143.9V75.822l2.546-0.254V143.9H812.28z"/>
<path fill="#FFFFFF" d="M831.38,117.076c0-15.534,6.536-23.598,19.099-23.598c10.696,0,18.505,6.621,18.505,22.834
	c0,0.339,0,0.849-0.085,1.188h-34.887c0.169,18.844,5.771,25.125,18.759,25.125c5.348,0,9.677-1.443,13.921-3.989l0.34,2.207
	c-4.244,2.631-8.743,4.074-14.431,4.074C837.237,144.918,831.38,136.939,831.38,117.076z M866.522,115.718
	c-0.17-14.515-6.876-20.033-16.044-20.033c-11.034,0-16.043,7.045-16.552,20.033H866.522z"/>
<path fill="#FFFFFF" d="M911.597,98.826c-3.311-1.783-7.47-3.056-11.8-3.056c-12.308,0-17.485,6.791-17.485,22.494
	c0,18.166,5.941,24.447,17.401,24.447c4.498,0,8.912-1.273,12.223-3.989l0.425,2.292c-3.056,2.292-7.895,3.99-12.987,3.99
	c-13.242,0-19.693-7.47-19.693-26.739c0-17.062,6.111-24.701,19.778-24.701c4.669,0,9.082,1.188,12.478,2.886L911.597,98.826z"/>
<path fill="#FFFFFF" d="M931.376,96.364v36.755c0,6.791,3.565,9.422,8.828,9.422c1.358,0,3.226-0.255,4.244-0.764l0.34,1.952
	c-1.188,0.594-3.396,0.934-5.178,0.934c-6.961,0-10.865-3.396-10.865-11.459v-36.84h-8.488v-2.037h8.488l0.594-13.751l2.037-0.34
	v14.091h13.667v2.037H931.376z"/>
<path fill="#FFFFFF" d="M961.851,82.189c-1.782,0-2.886-0.594-2.886-2.716c0-1.698,1.104-2.801,2.886-2.801
	c1.697,0,2.717,1.019,2.717,2.801C964.567,81.425,963.548,82.189,961.851,82.189z M960.492,143.9V94.497l2.547-0.255V143.9H960.492z
	"/>
<path fill="#FFFFFF" d="M987.062,143.9V96.28h-8.658v-1.953h8.658v-2.546c0-9.337,4.414-15.279,15.448-15.279
	c2.292,0,5.009,0.509,6.536,1.019l-0.254,1.783c-1.783-0.509-3.99-0.849-6.282-0.849c-8.912,0-12.902,5.008-12.902,13.327v2.546
	h15.109v1.953h-15.109v47.62H987.062z"/>
<path fill="#B22222" d="M667.05,183.67c0-1.11,0.9-2,2-2l0,0c1.1,0,2,0.89,2,2l0,0c0,1.1-0.9,2-2,2l0,0
	C667.95,185.67,667.05,184.77,667.05,183.67z M667.05,172.08c0-1.1,0.9-2,2-2l0,0c1.1,0,2,0.9,2,2l0,0c0,1.1-0.9,2-2,2l0,0
	C667.95,174.08,667.05,173.18,667.05,172.08z M667.05,160.49c0-1.1,0.9-2,2-2l0,0c1.1,0,2,0.9,2,2l0,0c0,1.1-0.9,2-2,2l0,0
	C667.95,162.49,667.05,161.59,667.05,160.49z M667.05,148.9c0-1.1,0.9-2,2-2l0,0c1.1,0,2,0.9,2,2l0,0c0,1.1-0.9,2-2,2l0,0
	C667.95,150.9,667.05,150,667.05,148.9z M667.05,137.31c0-1.11,0.9-2,2-2l0,0c1.1,0,2,0.89,2,2l0,0c0,1.1-0.9,2-2,2l0,0
	C667.95,139.31,667.05,138.41,667.05,137.31z M667.05,125.72c0-1.1,0.9-2,2-2l0,0c1.1,0,2,0.9,2,2l0,0c0,1.1-0.9,2-2,2l0,0
	C667.95,127.72,667.05,126.82,667.05,125.72z M667.05,114.13c0-1.1,0.9-2,2-2l0,0c1.1,0,2,0.9,2,2l0,0c0,1.1-0.9,2-2,2l0,0
	C667.95,116.13,667.05,115.23,667.05,114.13z M667.05,102.54c0-1.11,0.9-2,2-2l0,0c1.1,0,2,0.89,2,2l0,0c0,1.11-0.9,2-2,2l0,0
	C667.95,104.54,667.05,103.65,667.05,102.54z M667.05,90.95c0-1.11,0.9-2,2-2l0,0c1.1,0,2,0.89,2,2l0,0c0,1.1-0.9,2-2,2l0,0
	C667.95,92.95,667.05,92.05,667.05,90.95z M667.05,79.36c0-1.1,0.9-2,2-2l0,0c1.1,0,2,0.9,2,2l0,0c0,1.1-0.9,2-2,2l0,0
	C667.95,81.36,667.05,80.46,667.05,79.36z M667.05,67.77c0-1.11,0.9-2,2-2l0,0c1.1,0,2,0.89,2,2l0,0c0,1.1-0.9,2-2,2l0,0
	C667.95,69.77,667.05,68.87,667.05,67.77z M667.05,56.18c0-1.11,0.9-2,2-2l0,0c1.1,0,2,0.89,2,2l0,0c0,1.11-0.9,2-2,2l0,0
	C667.95,58.18,667.05,57.29,667.05,56.18z M667.05,44.59c0-1.1,0.9-2,2-2l0,0c1.1,0,2,0.9,2,2l0,0c0,1.1-0.9,2-2,2l0,0
	C667.95,46.59,667.05,45.69,667.05,44.59z M667.05,33c0-1.1,0.9-2,2-2l0,0c1.1,0,2,0.9,2,2l0,0c0,1.1-0.9,2-2,2l0,0
	C667.95,35,667.05,34.1,667.05,33z"/>
</svg>
